<svg version="1.1" id="logo" xmlns="http://www.w3.org/2000/svg" xmlns:xlink="http://www.w3.org/1999/xlink" x="0px" y="0px" width="612px" height="612px" viewBox="0 0 612 612" enable-background="new 0 0 612 612" xml:space="preserve">
    <g>
        <path fill="#2B4921" d="M287.728,116.854c-54.588,67.378-81.884,128.059-81.884,182.043c0,31.595,7.782,52.729,23.348,63.403
            c15.565,10.67,32.708,16.007,51.432,16.007c3.835,0,10.714-0.318,20.641-0.943c15.788-1.044,27.632-1.569,35.525-1.569
            c37.222,0,63.106,9.783,77.657,29.347c14.549,19.569,21.824,46.092,21.824,79.566c0,36.828-11.054,64.815-33.159,83.962
            c-22.107,19.142-47.146,28.717-75.115,28.717c-13.539,0-25.211-3.663-35.022-10.983c-9.814-7.325-14.72-15.8-14.72-25.426
            c0-7.114,2.876-13.34,8.63-18.673c5.752-5.338,13.704-8.007,23.853-8.007c7.671,0,17.145,1.675,28.425,5.023
            c10.375,3.35,19.285,5.021,26.73,5.021c12.856,0,23.572-3.664,32.146-10.985c8.569-7.323,12.856-17.368,12.856-30.132
            c0-25.527-13.873-38.293-41.618-38.293c-6.317,0-18.948,0.734-37.898,2.197c-18.722,1.256-31.467,1.886-38.233,1.886
            c-39.703,0-69.196-12.448-88.483-37.351c-19.287-24.901-28.93-59.111-28.93-102.636c0-35.154,6.429-69.837,19.287-104.047
            c12.858-34.21,35.078-70.253,66.658-108.127c-15.339-1.884-27.916-7.168-37.728-15.852c-9.813-8.677-14.719-19.19-14.719-31.541
            c0-28.04,20.302-45.826,60.906-53.358l3.721,11.299c-18.272,9.415-27.408,22.079-27.408,37.978
            c0,19.883,10.716,30.968,32.146,33.27c42.857-48.335,81.656-72.503,116.396-72.503c16.242,0,24.362,7.427,24.362,22.284
            c0,17.788-13.479,33.582-40.433,47.393C351.962,109.635,321.565,116.648,287.728,116.854z"/>
    </g>
</svg>